<?xml version="1.0" encoding="UTF-8" standalone="no"?>
<!-- Created with Inkscape (http://www.inkscape.org/) -->

<svg
   version="1.1"
   id="svg1"
   width="1753"
   height="819"
   viewBox="0 0 1753 819"
   xmlns="http://www.w3.org/2000/svg"
   xmlns:svg="http://www.w3.org/2000/svg">
  <defs
     id="defs1" />
  <g
     id="g1">
    <path
       style="fill:#33aa33;fill-opacity:1"
       d="m 277.92237,278.14504 c 1.60465,-2.9983 17.65609,-24.75625 25.89404,-35.09972 29.47138,-37.0039 76.95959,-85.33798 111.90527,-113.89855 5.07193,-4.14521 9.08065,-7.67777 8.90829,-7.85014 -0.58322,-0.58321 -28.06368,14.86293 -38.12997,21.43199 -30.19488,19.70457 -51.74524,37.39978 -80.0356,65.71801 -17.86523,17.88283 -35.25187,37.74549 -44.49826,50.83521 l -4.79059,6.78184 -1.15936,-4.78184 c -2.12081,-8.7473 -2.46171,-38.77779 -0.58725,-51.73028 3.14317,-21.71917 8.88839,-40.0483 18.5262,-59.10463 28.34704,-56.049098 80.50099,-92.490916 153.60384,-107.328469 24.13206,-4.89804 58.6743,-8.089251 87.77892,-8.10952 L 528.1758,35 l -0.6823,4.25 c -9.14235,56.947383 -24.56302,102.41431 -46.70436,137.70504 -36.07021,57.49173 -91.96807,93.27074 -158.75113,101.61315 -6.3041,0.7875 -19.03243,1.43181 -28.28519,1.43181 -16.07483,0 -16.77903,-0.0825 -15.83045,-1.85496 z"
       id="path27" />
    <path
       style="fill:#0099aa;fill-opacity:1"
       d="M 1262,566 V 389 h 111 111 v 29.5 29.5 h -77 -77 v 44 44 h 67.5 67.5 v 30.5 30.5 h -67.4795 -67.4795 l -0.2705,44.0003 -0.2705,44.00029 78.75,-2.9e-4 L 1487,685 v 29 29 H 1374.5 1262 Z"
       id="path26" />
    <path
       style="fill:#0099aa;fill-opacity:1"
       d="M 1153,566.5 V 390 h 32.5 32.5 V 566.5 743 h -32.5 -32.5 z"
       id="path25" />
    <path
       style="fill:#003366;fill-opacity:1"
       d="m 1069.4351,744.8855 c -26.1219,-1.90951 -47.7617,-14.54828 -57.2359,-33.42867 -5.7163,-11.39171 -5.5751,-9.09314 -5.9405,-96.70683 L 1005.922,534 H 985.96102 966 v -26 -26 h 20.5 20.5 v -35 -35 h 33 33 v 35 35 h 23.5 23.5 v 26 26 h -23.5 -23.5 v 66.45078 c 0,69.31802 0.2343,73.63339 4.3284,79.7086 4.4181,6.55605 7.2022,7.34262 25.9216,7.32359 l 16.75,-0.017 v 27.19964 c 0,25.04313 -0.1387,27.24015 -1.75,27.71054 -6.2469,1.82371 -36.7466,3.39158 -48.8149,2.50938 z"
       id="path24" />
    <path
       style="fill:#003366;fill-opacity:1"
       d="m 1594,748.36651 c -1.375,-0.19862 -6.55,-0.86351 -11.5,-1.47754 C 1543.9244,742.10379 1515.9624,720.44409 1505.1852,687 1503.1049,680.54438 1500,665.5083 1500,661.88953 1500,660.07633 1501.2881,660 1531.8865,660 h 31.8864 l 0.6669,4.44699 c 1.6749,11.16925 11.0785,23.51841 21.7525,28.56645 8.8779,4.19857 15.4916,5.28928 28.7729,4.74515 18.7963,-0.77007 30.7298,-6.24256 37.5032,-17.19824 5.5799,-9.02533 3.5794,-22.1351 -4.4027,-28.85159 -5.5696,-4.68649 -13.4078,-7.47412 -39.5657,-14.07126 -28.2395,-7.12213 -51.6234,-14.64773 -62.2535,-20.03491 -19.7667,-10.01748 -30.6249,-22.36967 -35.341,-40.2038 -2.9755,-11.25169 -2.9891,-32.64358 -0.028,-43.75257 2.8962,-10.86474 8.3769,-20.57916 16.5959,-29.4158 11.8889,-12.78245 23.4833,-20.01789 40.3444,-25.17683 12.806,-3.91822 22.0667,-5.05359 41.22,-5.05359 65.1108,0 99.8925,25.15757 104.7702,75.7803 0.4388,4.55416 0.5865,8.49166 0.3282,8.75 -0.2584,0.25833 -13.8336,0.4697 -30.1671,0.4697 h -29.6975 l -0.6475,-4.75 c -0.912,-6.69046 -5.2954,-14.79051 -10.4676,-19.34327 -9.3808,-8.25735 -21.4211,-11.56975 -38.5886,-10.61611 -15.3603,0.85325 -25.0749,4.98478 -30.3054,12.88857 -2.307,3.48616 -2.7579,5.24128 -2.7601,10.74384 0,8.34053 2.302,13.17883 8.4142,17.65925 6.5516,4.80258 17.4454,8.47076 48.6428,16.37909 31.851,8.07405 45.6911,12.50648 56.3136,18.03496 17.7902,9.25899 26.3127,20.06496 31.9445,40.50367 2.4132,8.75776 2.3123,37.49992 -0.1631,46.5 -3.2364,11.76645 -8.3208,20.54631 -17.46,30.14999 -16.2235,17.04815 -35.0306,26.54214 -60.1946,30.38678 -8.5605,1.3079 -37.9396,1.84961 -45,0.82974 z"
       id="path23" />
    <path
       style="fill:#003366;fill-opacity:1"
       d="m 828,748.36651 c -1.375,-0.19862 -6.55,-0.86351 -11.5,-1.47754 C 777.87881,742.09814 749.97512,720.48362 739.18515,687 737.10486,680.54438 734,665.5083 734,661.88953 734,660.07633 735.28806,660 765.88646,660 h 31.88645 l 0.66687,4.44699 c 1.56214,10.41712 10.96682,23.19166 20.7078,28.12779 11.39272,5.77313 29.58033,7.20328 44.16594,3.47291 21.28597,-5.44403 31.81803,-22.17007 23.80249,-37.80089 C 882.20146,648.66312 876.21594,645.99607 838.5,636.58431 800.25073,627.03946 777.69213,618.26448 764.79554,607.91428 748.98176,595.22289 742.8937,580.8843 742.75308,556 c -0.09,-15.9309 1.44553,-23.32543 7.46397,-35.94335 3.35772,-7.03959 5.62795,-10.04961 13.65511,-18.10486 13.46939,-13.5165 27.31738,-21.04061 47.04448,-25.56094 9.16523,-2.10014 40.96422,-2.95719 54.15088,-1.45947 41.15484,4.67431 66.36582,21.07097 77.37666,50.3241 2.64177,7.01853 5.32207,20.22275 5.7333,28.24452 l 0.25632,5 -30.07899,0.26446 -30.079,0.26445 -0.64951,-4.76445 c -1.45571,-10.67821 -9.62329,-21.07638 -20.31416,-25.862 -11.52212,-5.15773 -32.394,-5.76799 -45.24049,-1.32277 -14.8804,5.14901 -21.45838,20.46833 -13.98275,32.56416 5.09529,8.24435 15.04666,12.32379 54.39356,22.29798 41.74958,10.58326 54.90761,15.48665 68.03191,25.35237 9.206,6.92027 16.40774,18.37231 19.93852,31.7058 2.30396,8.70057 3.13257,29.56953 1.59232,40.10336 -2.84463,19.45459 -12.28614,34.71516 -29.79699,48.16174 -13.85533,10.6395 -30.37362,17.44564 -49.24406,20.29036 -8.54896,1.28875 -38.02025,1.81988 -45.00416,0.81105 z"
       id="path22" />
    <path
       id="path21"
       style="fill:#003366;fill-opacity:1"
       d="M 597.47656 473.0918 C 577.85743 473.03465 558.06518 476.94855 541.5332 484.8457 C 527.83054 491.39132 520.64552 496.41598 510.11133 506.82227 C 487.29936 529.35726 475.28447 559.99424 473.375 600.5 C 471.93842 630.97433 477.88966 663.08668 489.0918 685.30273 C 494.88686 696.79548 500.27839 704.32234 509.77148 714.16992 C 528.60705 733.70884 551.34447 744.47548 582 748.375 C 589.19934 749.29079 616.74102 748.08446 624.92578 746.49414 C 663.2797 739.04186 692.07264 717.37132 705.59375 685.78125 C 708.73162 678.45009 713 665.83612 713 663.89453 C 713 663.38646 699.06471 663.00758 680.75 663.01758 L 648.5 663.0332 L 646.15625 668.45117 C 641.2154 679.86725 628.43862 690.4831 615.23438 694.14453 C 606.94598 696.44283 592.69787 696.59334 584.54102 694.46875 C 560.96295 688.32744 546.45103 668.92565 542.49023 638.25 L 541.8125 633 L 628.76758 633 L 715.7207 633 L 716.35156 627.75 C 718.81708 607.22345 715.09444 570.82052 708.44336 550.41406 C 699.26029 522.23907 678.91683 498.5639 652.375 485.16797 C 636.54132 477.17655 617.09569 473.14894 597.47656 473.0918 z M 595.06445 527.11328 C 598.57676 527.12285 602.12143 527.58834 606.5 528.51172 C 627.29667 532.89743 642.47986 548.15297 647.29297 569.5 C 648.16103 573.35 649.0973 578.1875 649.37305 580.25 L 649.875 584 L 595.9375 584 C 566.06623 584 542 583.61213 542 583.13086 C 542 580.03299 545.29494 564.29147 546.68164 560.76367 C 553.33027 543.84951 566.911 532.03428 583.82617 528.44922 C 588.07205 527.54936 591.55215 527.10371 595.06445 527.11328 z " />
    <path
       id="path19"
       style="fill:#003366;fill-opacity:1"
       d="M 34.996094 195 L 35.248047 484.01953 L 35.5 773.03906 L 83.25 773.26953 L 131 773.5 L 131 754.75 C 130.99999 744.4375 131.3654 736 131.8125 736 C 132.2596 736 133.9471 737.39855 135.5625 739.10742 C 137.1779 740.81629 141.65 744.78881 145.5 747.93555 C 169.88521 767.86645 197.86236 780.32171 229.92773 785.52344 C 243.41945 787.7121 277.43557 786.90388 291.5 784.06055 C 347.51063 772.73718 393.12015 737.18582 420.50977 683.5 C 436.77218 651.62438 443.75042 618.62553 442.71289 578.5 C 441.25723 522.2034 422.14986 475.10208 386.07227 438.87695 C 366.87842 419.60462 350.66399 408.61301 327.95898 399.48047 C 305.45486 390.42873 286.71093 387 259.7207 387 C 222.7498 387 193.15559 395.63883 162 415.52539 C 155.04779 419.96298 136.40166 434.54571 134.12695 437.32422 C 133.3721 438.24625 132.36735 439 131.89453 439 C 131.42171 439 130.91491 391.6136 130.76758 333.69727 L 130.5 228.39453 L 126.8125 220.94727 C 121.04923 209.30746 111.74115 200.95461 100.19922 197.06641 C 94.547113 195.16235 91.7356 195 64.529297 195 L 34.996094 195 z M 250.40234 473.96875 C 262.93267 474.09141 275.45504 476.11703 286.26172 480.02734 C 322.74458 493.22838 348.36066 525.48412 355.62305 567.36523 C 356.81164 574.21965 357.08112 580.49536 356.70117 592.5 C 356.00198 614.59122 352.94816 627.30705 343.97461 645.5 C 329.73123 674.37701 306.23213 693.73083 276 701.48242 C 267.74963 703.59783 262.60762 704.24586 252 704.50391 C 244.575 704.68453 237.15 704.63261 235.5 704.39062 C 203.67018 699.72244 178.96777 684.6498 162.04883 659.57031 C 148.96143 640.17045 142.5665 620.08678 141.30469 594.41406 C 138.68308 541.07482 167.82226 495.25806 214.5 479.32422 C 225.33455 475.62575 237.87202 473.84609 250.40234 473.96875 z " />
  </g>
</svg>
